<svg class="icon" style="width: 1em;height: 1em;vertical-align: middle;fill: transparent;overflow: hidden;" viewBox="0 0 1024 1024" version="1.1" xmlns="http://www.w3.org/2000/svg" p-id="1907"><path d="M172.590545 36.305455L502.318545 365.847273c17.687273 17.687273 47.010909 17.594182 64.605091 0L896.651636 36.305455a46.545455 46.545455 0 0 1 65.815273 65.815272L632.738909 431.755636a139.264 139.264 0 0 1-196.235636 0L106.682182 102.027636A46.545455 46.545455 0 0 1 172.590545 36.305455z" fill="#62F04C" p-id="1908"></path><path d="M172.590545 501.76L502.318545 831.301818c17.687273 17.687273 47.010909 17.594182 64.605091 0L896.651636 501.76a46.545455 46.545455 0 0 1 65.815273 65.815273L632.738909 897.210182a139.264 139.264 0 0 1-196.235636 0L106.682182 567.482182a46.545455 46.545455 0 1 1 65.908363-65.815273z" fill="#62F04C" p-id="1909"></path></svg>